<svg xmlns="http://www.w3.org/2000/svg" viewBox="0 0 30 30" width="30" height="30"><defs><filter id="a" color-interpolation-filters="sRGB"><feFlood result="flood" flood-opacity=".498" flood-color="#000"/><feComposite operator="in" result="composite1" in2="SourceGraphic" in="flood"/><feGaussianBlur stdDeviation="1" result="blur" in="composite1"/><feOffset result="offset" dx=".5" dy=".5"/><feComposite result="fbSourceGraphic" in2="offset" in="SourceGraphic"/><feColorMatrix values="0 0 0 -1 0 0 0 0 -1 0 0 0 0 -1 0 0 0 0 1 0" result="fbSourceGraphicAlpha" in="fbSourceGraphic"/><feFlood result="flood" flood-color="#000" flood-opacity=".498"/><feComposite operator="in" result="composite1" in2="fbSourceGraphic" in="flood"/><feGaussianBlur result="blur" stdDeviation="1" in="composite1"/><feOffset result="offset" dx=".5" dy=".5"/><feComposite result="composite2" in2="offset" in="fbSourceGraphic"/></filter></defs><path d="M27.864 1044q.636.636.636 1.546t-.636 1.545l-3.09 3.092q-.637.636-1.546.636-.91 0-1.546-.636l-6.682-6.7-6.682 6.682q-.636.636-1.545.636-.91 0-1.546-.636l-3.09-3.09q-.637-.6-.637-1.5 0-.91.636-1.547l6.682-6.682-6.682-6.68q-.636-.7-.636-1.6 0-.91.636-1.547l3.09-3.09q.638-.637 1.547-.637.91 0 1.545.637l6.682 6.7 6.682-6.68q.636-.638 1.545-.638.91 0 1.546.636l3.09 3.09q.637.637.637 1.546 0 .91-.636 1.545l-6.682 6.682 6.682 6.68z" filter="url(#a)" fill="#fff" transform="translate(0 -1022.4)"/></svg>