<?xml version="1.0" encoding="UTF-8"?><!DOCTYPE svg PUBLIC "-//W3C//DTD SVG 1.1//EN" "http://www.w3.org/Graphics/SVG/1.1/DTD/svg11.dtd"><svg xmlns="http://www.w3.org/2000/svg"><symbol id="facebook" viewBox="0 0 512.002 512.002"><circle cx="256.001" cy="256" r="256" fill="#4e598f"/><path d="M511.596 241.7L391.019 121.085c-1.998.605-6.982-1.714-9.173-1.274-51.717 8.62-101.71 0-151.704 13.791-24.135 6.896-25.859 36.202-34.478 55.165-12.067 34.478-10.343 72.404-25.859 105.158-10.343 22.411-34.478 36.202-43.098 62.061-2.875 10.785-2.705 24.379-5.956 34.69l120.98 120.922c4.725.26 9.48.403 14.269.403 141.384 0 256-114.616 256-256 .001-4.8-.142-9.567-.404-14.301z" fill="#364270"/><g fill="#fff"><path d="M363.043 109.466H148.958c-21.809 0-39.49 17.68-39.49 39.49v214.085c0 21.811 17.68 39.49 39.49 39.49h105.584l.183-104.722h-27.21a6.418 6.418 0 0 1-6.418-6.396l-.133-33.759a6.422 6.422 0 0 1 6.42-6.444h27.162v-32.618c0-37.852 23.118-58.463 56.884-58.463h27.71a6.421 6.421 0 0 1 6.42 6.42v28.463a6.419 6.419 0 0 1-6.416 6.42l-17.006.01c-18.363 0-21.921 8.725-21.921 21.533v28.239h40.351c3.848 0 6.83 3.358 6.375 7.173l-4.001 33.759a6.418 6.418 0 0 1-6.375 5.665h-36.168l-.183 104.726h62.826c21.809 0 39.49-17.682 39.49-39.491v-214.09c.001-21.809-17.68-39.49-39.489-39.49z"/><path d="M254.542 402.53l.183-104.722h-.448V402.53z"/></g><path d="M363.043 109.466H254.277v141.741h.269V218.59c0-37.852 23.118-58.463 56.884-58.463h27.71a6.421 6.421 0 0 1 6.42 6.42v28.463a6.419 6.419 0 0 1-6.416 6.42l-17.006.01c-18.363 0-21.921 8.725-21.921 21.533v28.238h40.351c3.848 0 6.83 3.358 6.375 7.173l-4.001 33.759a6.418 6.418 0 0 1-6.375 5.665h-36.168l-.183 104.726h62.826c21.809 0 39.49-17.682 39.49-39.491V148.956c.001-21.809-17.68-39.49-39.489-39.49z" fill="#d1d1d1"/></symbol><symbol id="google-plus" viewBox="0 0 512 512"><circle cx="256" cy="256" r="256" fill="#cf4c3c"/><path d="M372.97 215.509l-36.521 43.939-68.763-71.518h-95.008l-38.453 41.637v89.912L318.85 504.217c83.594-21.102 150.816-83.318 178.916-163.887L372.97 215.509z" fill="#ad3228"/><path d="M212.289 275.344h45.789c-8.037 22.721-29.806 39.012-55.287 38.826-30.92-.228-56.491-24.964-57.689-55.863-1.286-33.12 25.285-60.478 58.123-60.478 15.017 0 28.72 5.723 39.05 15.098 2.448 2.22 6.17 2.236 8.578-.031l16.818-15.825c2.631-2.476 2.639-6.658.016-9.14-16.382-15.524-38.359-25.198-62.595-25.669-51.69-1.012-95.261 41.37-95.62 93.07-.365 52.09 41.75 94.429 93.753 94.429 50.014 0 90.869-39.159 93.605-88.485.072-.619.121-21.52.121-21.52H212.29a6.282 6.282 0 0 0-6.282 6.282v23.024a6.281 6.281 0 0 0 6.281 6.282z" fill="#fff"/><path d="M374.531 241.847V219.35a5.502 5.502 0 0 0-5.504-5.504h-18.934a5.504 5.504 0 0 0-5.506 5.504v22.497h-22.492a5.508 5.508 0 0 0-5.51 5.506v18.932a5.51 5.51 0 0 0 5.51 5.506h22.492v22.494a5.505 5.505 0 0 0 5.506 5.506h18.934a5.504 5.504 0 0 0 5.504-5.506v-22.494h22.497a5.508 5.508 0 0 0 5.506-5.506v-18.932a5.507 5.507 0 0 0-5.506-5.506h-22.497z" fill="#d1d1d1"/></symbol><symbol id="instagram" viewBox="0 0 512 512"><circle cx="256" cy="256" r="256" fill="#6c27b3"/><path d="M374.71 132.922c-30.587 3.872-62.479 3.737-94.575.681-44.822-3.448-110.33-24.135-134.465 17.239-38.772 66.236-19.649 151.035-10.614 226.078l134.737 134.708c130.388-6.923 234.886-111.407 241.831-241.79L374.71 132.922z" fill="#501a96"/><g fill="#fff"><path d="M315.227 109.468H196.772c-48.14 0-87.304 39.164-87.304 87.304v118.455c0 48.138 39.164 87.305 87.305 87.305h118.455c48.138 0 87.305-39.165 87.305-87.305V196.772c-.001-48.14-39.166-87.304-87.306-87.304zm57.823 205.76c0 31.934-25.888 57.822-57.822 57.822H196.773c-31.934 0-57.822-25.888-57.822-57.822V196.773c0-31.934 25.888-57.823 57.822-57.823h118.455c31.934 0 57.822 25.89 57.822 57.823v118.455z"/><path d="M256 180.202c-41.794 0-75.798 34.004-75.798 75.798 0 41.791 34.004 75.795 75.798 75.795s75.795-34.001 75.795-75.795-34.001-75.798-75.795-75.798zm0 122.111c-25.579 0-46.316-20.733-46.316-46.313s20.737-46.316 46.316-46.316 46.313 20.735 46.313 46.316c0 25.579-20.734 46.313-46.313 46.313z"/></g><g fill="#d1d1d1"><path d="M350.103 180.774c0 10.03-8.132 18.163-18.163 18.163-10.03 0-18.163-8.133-18.163-18.163 0-10.031 8.133-18.163 18.163-18.163 10.033 0 18.163 8.13 18.163 18.163z"/><path d="M315.228 109.468h-59.802v29.482h59.802c31.934 0 57.822 25.89 57.822 57.823v118.455c0 31.934-25.888 57.822-57.822 57.822h-59.802v29.482h59.802c48.138 0 87.304-39.165 87.304-87.305V196.772c0-48.14-39.165-87.304-87.304-87.304z"/><path d="M256 180.202c-.193 0-.381.014-.574.014v29.482c.191-.002.381-.014.574-.014 25.579 0 46.313 20.735 46.313 46.316 0 25.579-20.733 46.313-46.313 46.313-.193 0-.383-.012-.574-.014v29.482c.193.002.381.014.574.014 41.794 0 75.795-34.002 75.795-75.795 0-41.794-34.001-75.798-75.795-75.798z"/></g></symbol><symbol id="linkedin" viewBox="0 0 512.002 512.002"><circle cx="256.001" cy="256" r="256" fill="#4376b1"/><path d="M511.016 233.634L394.729 117.198c-71.035 9.237-145.27 7.859-216.305 9.511-29.306 0-58.613 13.791-53.441 46.545 10.343 65.508 15.515 129.293 3.448 196.525-1.9 8.545-5.897 17.089-11.117 25.059L233.48 511.005c7.421.646 14.929.996 22.519.996 141.384 0 256-114.616 256-256 .002-7.54-.343-14.996-.983-22.367z" fill="#369"/><path d="M376.023 109.468H135.979c-14.643 0-26.51 11.867-26.51 26.51V376.02c0 14.639 11.867 26.51 26.51 26.51h240.042c14.639 0 26.51-11.871 26.51-26.51V135.978c.002-14.643-11.869-26.51-26.508-26.51zM200.155 362.517a7.714 7.714 0 0 1-7.716 7.716h-32.837a7.715 7.715 0 0 1-7.716-7.716V224.856a7.715 7.715 0 0 1 7.716-7.716h32.839a7.715 7.715 0 0 1 7.716 7.716v137.661h-.002zM176.02 204.162c-17.23 0-31.196-13.969-31.196-31.201 0-17.229 13.965-31.196 31.196-31.196 17.232 0 31.198 13.969 31.198 31.196 0 17.234-13.967 31.201-31.198 31.201zm195.753 158.977a7.094 7.094 0 0 1-7.09 7.096h-35.242a7.095 7.095 0 0 1-7.092-7.096v-64.574c0-9.63 2.826-42.21-25.172-42.21-21.719 0-26.124 22.3-27.008 32.304v74.478a7.095 7.095 0 0 1-7.094 7.096h-34.082a7.097 7.097 0 0 1-7.096-7.096V224.234a7.097 7.097 0 0 1 7.096-7.096h34.082a7.095 7.095 0 0 1 7.094 7.096v12.009c8.054-12.085 20.023-21.416 45.502-21.416 56.425 0 56.105 52.717 56.105 81.686v66.627h-.003z" fill="#fff"/><path d="M376.023 109.468H255.427v107.67h7.647a7.095 7.095 0 0 1 7.094 7.096v12.009c8.054-12.085 20.023-21.416 45.503-21.416 56.425 0 56.105 52.717 56.105 81.686v66.625a7.094 7.094 0 0 1-7.09 7.096h-35.242a7.095 7.095 0 0 1-7.092-7.096v-64.574c0-9.63 2.826-42.21-25.172-42.21-21.719 0-26.124 22.3-27.008 32.304v74.478a7.095 7.095 0 0 1-7.094 7.096h-7.647v32.301h120.596c14.639 0 26.51-11.871 26.51-26.51V135.978c-.004-14.643-11.875-26.51-26.514-26.51z" fill="#d1d1d1"/></symbol><symbol id="pinterest" viewBox="0 0 512 512"><circle cx="256" cy="256" r="256" fill="#862328"/><path d="M359.152 151.924c-50.922 3.653-103.777-22.602-151.421-4.53-72.404 27.582-94.815 134.465-49.993 201.697 4.275 6.413 3.146 11.028-.036 15.572l143.186 143.41c105.417-18.646 188.559-101.797 207.191-207.217L359.152 151.924z" fill="#701b24"/><path d="M402.472 260.294c2.389-83.62-65.293-152.024-148.652-150.811-80.231 1.165-144.962 67.424-144.348 147.661.441 57.494 33.994 107.098 82.53 130.701 2.807 1.364 6.058-.76 5.939-3.879-.353-9.426-.048-19.506 1.836-27.607 1.86-7.977 9.142-38.828 13.933-59.094 2.331-9.868 2.613-20.113.736-30.075a61.443 61.443 0 0 1-1.062-11.38c0-21.657 12.553-37.826 28.184-37.826 13.288 0 19.706 9.978 19.706 21.942 0 13.362-8.511 33.342-12.9 51.86-3.67 15.501 7.775 28.144 23.064 28.144 27.684 0 48.962-29.189 48.962-71.327 0-37.292-26.798-63.364-65.06-63.364-44.316 0-70.33 33.239-70.33 67.593 0 13.386 5.158 27.739 11.592 35.542 1.272 1.543 1.46 2.898 1.083 4.468-1.183 4.92-3.81 15.498-4.327 17.663-.679 2.851-2.258 3.456-5.208 2.086-19.454-9.056-31.618-37.495-31.618-60.344 0-49.131 35.699-94.253 102.914-94.253 54.032 0 96.023 38.502 96.023 89.959 0 53.677-33.849 96.88-80.827 96.88-12.414 0-24.245-5.075-31.198-11.952-2.141-2.115-5.756-1.152-6.52 1.757-2.45 9.333-6.408 24.429-7.682 29.334-2.296 8.833-7.137 19.118-11.992 28.076-1.288 2.379.017 5.322 2.639 5.989a146.985 146.985 0 0 0 37.492 4.486c76.893-.712 142.891-65.367 145.091-142.229z" fill="#fff"/><g fill="#d1d1d1"><path d="M271.439 319.933c27.684 0 48.962-29.189 48.962-71.327 0-37.292-26.798-63.364-65.06-63.364-.809 0-1.596.034-2.393.057v36c5.579 3.898 8.326 10.831 8.326 18.63 0 9.469-4.274 22.266-8.326 35.507v36.397c4.319 5 10.93 8.1 18.491 8.1z"/><path d="M253.819 109.484c-.291.003-.579.029-.871.034v48.63c2.132-.095 4.296-.15 6.497-.15 54.032 0 96.023 38.502 96.023 89.959 0 53.677-33.849 96.88-80.827 96.88-7.821 0-15.41-2.017-21.694-5.229v62.886c1.474.031 2.951.045 4.436.031 76.89-.715 142.886-65.371 145.086-142.231 2.392-83.62-65.292-152.024-148.65-150.81z"/></g></symbol><symbol id="twitter" viewBox="0 0 512 512"><circle cx="256" cy="256" r="256" fill="#65a2d9"/><path d="M393.014 139.326c-26.703 23.169-53.253 43.475-74.954 71.852-53.381 64.372-118.613 155.7-207.386 142.086l158.61 158.396c134.456-6.873 241.497-117.493 242.686-253.376L393.014 139.326z" fill="#3a7ca5"/><path d="M397.872 162.471a115.847 115.847 0 0 1-20.208 6.815 62.977 62.977 0 0 0 16.631-26.484c.926-2.893-2.219-5.398-4.832-3.848a116.572 116.572 0 0 1-30.894 12.762c-.628.16-1.276.24-1.929.24a8.195 8.195 0 0 1-5.411-2.065 63.176 63.176 0 0 0-41.805-15.777c-6.672 0-13.405 1.04-20.016 3.091-20.487 6.353-36.295 23.254-41.257 44.103-1.86 7.818-2.362 15.648-1.496 23.264a2.268 2.268 0 0 1-.569 1.772 2.35 2.35 0 0 1-1.969.781c-44.846-4.168-85.287-25.772-113.869-60.837-1.455-1.789-4.253-1.569-5.415.422-5.596 9.606-8.554 20.589-8.554 31.766a63.123 63.123 0 0 0 18.837 45.039 56.639 56.639 0 0 1-14.414-5.582c-2.188-1.214-4.877.35-4.908 2.851-.31 25.445 14.588 48.087 36.905 58.282a56.578 56.578 0 0 1-11.995-1.001c-2.463-.467-4.532 1.867-3.768 4.253 7.246 22.618 26.717 39.288 50.021 43.07-19.339 12.983-41.863 19.83-65.302 19.83l-7.306-.003c-2.255 0-4.16 1.469-4.73 3.65-.565 2.145.474 4.413 2.396 5.53 26.412 15.372 56.541 23.495 87.138 23.495 26.784 0 51.838-5.313 74.466-15.798 20.745-9.609 39.076-23.345 54.486-40.827 14.357-16.286 25.581-35.085 33.365-55.879 7.418-19.816 11.34-40.967 11.34-61.154v-.964c0-3.241 1.465-6.291 4.024-8.37a124.916 124.916 0 0 0 25.122-27.572c1.84-2.748-1.06-6.196-4.084-4.855z" fill="#fff"/><path d="M397.872 162.471a115.904 115.904 0 0 1-20.208 6.815 62.989 62.989 0 0 0 16.632-26.484c.926-2.893-2.219-5.398-4.832-3.848a116.572 116.572 0 0 1-30.894 12.762c-.628.16-1.276.24-1.929.24a8.195 8.195 0 0 1-5.411-2.065 63.176 63.176 0 0 0-41.805-15.777c-6.671 0-13.405 1.04-20.016 3.091-14.322 4.441-26.343 14.048-33.985 26.546v205.477a164.729 164.729 0 0 0 18.198-7.139c20.745-9.609 39.076-23.345 54.486-40.827 14.357-16.287 25.581-35.085 33.365-55.879 7.418-19.816 11.34-40.967 11.34-61.154v-.964c0-3.241 1.465-6.291 4.024-8.37a124.916 124.916 0 0 0 25.122-27.572c1.837-2.745-1.063-6.193-4.087-4.852z" fill="#d1d1d1"/></symbol><symbol id="vimeo" viewBox="0 0 512 512"><circle cx="256" cy="256" r="256" fill="#65a2d9"/><path d="M388.741 143.1c-14.305 27.281-24.457 56.289-35.357 85.626-15.398-17.534-27.851-31.056-27.851-31.056h-42.696l-56.832-56.83 31.923 119.672-91.57-67.722-49.145 27.405L259.958 362.94c-8.945 3.024-18.642 5.491-28.691 8.697L352.711 493.08c90.474-36.945 155.064-124.159 159.07-226.94L388.741 143.1z" fill="#3a7ca5"/><path d="M390.401 144.762c-7.096-7.646-17.368-11.717-30.527-12.104-37.152-1.2-63.426 18.566-78.091 58.733a5.965 5.965 0 0 0 1.226 6.106 5.928 5.928 0 0 0 5.947 1.71c4.22-1.16 8.401-1.746 12.435-1.746 5.413 0 12.621.995 16.208 5.735 2.75 3.641 3.125 9.097 1.11 16.219-1.698 6.011-10.449 22.097-21.28 39.117-13.195 20.739-20.482 30.036-22.585 30.036-6.959 0-32.116-111.547-32.809-113.993-7.213-25.566-10.836-38.398-34.299-38.398-17.884 0-57.768 32.658-90.517 61.109-2.015 1.746-3.71 3.22-5.022 4.346a7.786 7.786 0 0 0-1.088 10.702l6.103 7.859a7.78 7.78 0 0 0 10.68 1.576l.336-.241c10.593-7.537 20.604-14.655 28.16-15.048 8.209-.402 15.334 12.428 23.828 42.951 16.175 59.289 40.755 129.96 65.977 129.96 26.357 0 57.804-22.344 98.451-75.242 36.788-47.875 56.489-85.845 57.751-113.473.951-20.859-3.085-36.311-11.994-45.914z" fill="#fff"/><path d="M390.401 144.762c-7.096-7.646-17.368-11.717-30.527-12.104-37.152-1.2-63.426 18.566-78.091 58.733a5.965 5.965 0 0 0 1.226 6.106 5.928 5.928 0 0 0 5.947 1.71c4.22-1.16 8.401-1.746 12.435-1.746 5.413 0 12.621.995 16.208 5.735 2.75 3.641 3.125 9.097 1.11 16.219-1.698 6.011-10.449 22.097-21.28 39.117-13.195 20.739-20.482 30.036-22.585 30.036-3.587 0-12.007-29.625-19.42-58.675v148.599c24.426-4.613 53.212-27.479 89.219-74.342 36.788-47.875 56.489-85.845 57.751-113.473.952-20.86-3.084-36.312-11.993-45.915z" fill="#d1d1d1"/></symbol><symbol id="vine" viewBox="0 0 512 512"><circle cx="256" cy="256" r="256" fill="#63ad86"/><g fill="#3f8961"><path d="M156.365 150.985l145.606 133.747-67.806 85.045s-88.978-126.419-99.368-205.145l21.568-13.647z"/><path d="M346.355 126.226c-3.251 1.195-6.542 2.205-9.331 2.205-24.135-1.724-51.717 5.172-62.061 27.582-20.687 41.374-6.896 91.367 36.202 122.397 1.724 1.724-3.448 15.515-10.343 22.411-18.963 24.135-36.202 44.822-62.061 60.337-12.245 7.347-27.969 10.345-43.465 13.319l128.445 128.445c98.007-26.827 172.544-110.425 186.054-213.256l-163.44-163.44z"/></g><g fill="#fff"><path d="M394.307 253.452a8.324 8.324 0 0 0-9.157-7.101c-3.384.374-6.827.638-10.14.638-21.806 0-52.934-1.651-72.18-14.493a56.973 56.973 0 0 1-4.767-3.677c-14.441-12.419-17.58-27.72-17.665-38.369-.116-14.091 3.22-24.479 9.914-30.88 5.951-5.684 13.224-6.875 15.817-6.875.133 0 .252.003.36.012.805.045 8.037.646 13.341 8.418 4.101 6.004 9.132 19.646 2.794 47.599-.679 2.991.976 6.008 3.851 7.077 9.98 3.703 22.55 5.21 32.29 5.799a6.092 6.092 0 0 0 6.318-4.782c2.927-13.479 4.148-25.969 3.629-37.314-.76-16.674-5.191-31.054-13.176-42.751-10.964-16.062-28.439-26.24-46.742-27.215-13.138-.705-32.742 3.862-48.356 18.782-10.768 10.292-23.545 29.489-23.274 62.488.229 27.705 11.843 52.846 32.702 70.789 6.375 5.484 14.551 11.09 24.904 15.91-11.257 19.909-23.445 36.505-33.571 48.857-9.48 11.557-18.222 20.74-24.748 27.167-32.844-26.072-52.267-74.888-63.074-113.373-10.568-37.633-14.893-72.299-16.365-86.821-.405-4.003-3.918-6.961-7.937-6.69l-14.277.962 21.568-1.439-35.538 2.375c-4.208.283-7.351 3.982-6.939 8.176 1.522 15.591 6.075 52.869 17.646 94.342 8.913 31.939 20.183 59.809 33.508 82.841 17.505 30.256 38.74 52.441 63.116 65.929a21.608 21.608 0 0 0 10.462 2.7c4.908 0 9.785-1.669 13.74-4.923.779-.641 19.275-15.965 41.496-42.898 12.986-15.739 24.669-32.322 34.735-49.281a360.361 360.361 0 0 0 8.978-16.05c15.179 1.91 32.806 2.129 53.21-.186 4.653-.529 7.94-4.82 7.28-9.454l-3.753-26.289z"/><path d="M149.158 146.649h.003l7.204-.481zM134.797 147.609l14.358-.958c-.028.002-.053-.005-.083-.002l-14.275.96z"/></g><path d="M398.062 279.74l-3.755-26.288a8.324 8.324 0 0 0-9.157-7.101c-3.384.374-6.827.638-10.14.638-21.806 0-52.934-1.651-72.18-14.493a56.973 56.973 0 0 1-4.767-3.677c-14.441-12.419-17.58-27.72-17.665-38.369-.116-14.091 3.22-24.479 9.914-30.88 5.951-5.684 13.224-6.875 15.817-6.875.133 0 .252.003.36.012.805.045 8.037.646 13.341 8.418 4.101 6.004 9.132 19.646 2.794 47.599-.679 2.991.976 6.008 3.851 7.077 9.98 3.703 22.55 5.21 32.29 5.799a6.092 6.092 0 0 0 6.318-4.782c2.927-13.479 4.148-25.969 3.629-37.314-.76-16.674-5.191-31.054-13.176-42.751-10.964-16.062-28.439-26.24-46.742-27.215-13.138-.705-32.742 3.862-48.356 18.782-10.768 10.292-23.545 29.489-23.274 62.488.229 27.705 11.843 52.846 32.702 70.789 6.375 5.484 14.551 11.09 24.904 15.91-11.257 19.909-23.445 36.505-33.571 48.857-9.48 11.557-18.222 20.74-24.748 27.167a107.547 107.547 0 0 1-2.288-1.889v50.386c1.474.31 2.965.503 4.458.503 4.908 0 9.785-1.669 13.74-4.923.779-.641 19.275-15.965 41.496-42.899 12.986-15.739 24.669-32.322 34.735-49.281a360.361 360.361 0 0 0 8.978-16.05c15.179 1.91 32.806 2.129 53.21-.186 4.655-.529 7.942-4.818 7.282-9.452z" fill="#d1d1d1"/></symbol><symbol id="youtube" viewBox="0 0 512 512"><circle cx="256" cy="256" r="256" fill="#d22215"/><path d="M384.857 170.339c-7.677 2.343-15.682 4.356-23.699 6.361-56.889 12.067-132.741-20.687-165.495 32.754-27.317 42.494-35.942 95.668-67.017 133.663L294.629 509.1c110.47-16.72 197.773-104.036 214.476-214.511l-124.248-124.25z" fill="#a81411"/><path d="M341.649 152.333H170.351c-33.608 0-60.852 27.245-60.852 60.852v85.632c0 33.608 27.245 60.852 60.852 60.852h171.298c33.608 0 60.852-27.245 60.852-60.852v-85.632c0-33.607-27.245-60.852-60.852-60.852zm-41.155 107.834l-80.12 38.212c-2.136 1.019-4.603-.536-4.603-2.901v-78.814c0-2.4 2.532-3.955 4.67-2.87l80.12 40.601c2.386 1.207 2.343 4.624-.067 5.772z" fill="#fff"/><path d="M341.649 152.333h-87.373v78.605l46.287 23.455c2.384 1.208 2.341 4.624-.069 5.773l-46.218 22.044v77.459h87.373c33.608 0 60.852-27.245 60.852-60.852v-85.632c0-33.607-27.245-60.852-60.852-60.852z" fill="#d1d1d1"/></symbol></svg>